<mxfile host="app.diagrams.net" modified="2022-04-22T22:44:02.901Z" agent="5.0 (Macintosh; Intel Mac OS X 10_12_6) AppleWebKit/537.36 (KHTML, like Gecko) Chrome/99.0.4844.84 Safari/537.36" etag="OUH71iWAhRp3xUEt0RVZ" version="16.6.2" type="github">
  <diagram id="Nxm3mEQ14OhuB5Wi6-L1" name="Page-1">
    <mxGraphModel dx="786" dy="513" grid="1" gridSize="10" guides="1" tooltips="1" connect="1" arrows="1" fold="1" page="1" pageScale="1" pageWidth="827" pageHeight="1169" math="0" shadow="0">
      <root>
        <mxCell id="0" />
        <mxCell id="1" parent="0" />
        <mxCell id="0n6ZQgNS1HrYtbVCbrgp-1" value="&lt;h1&gt;Error handling&lt;/h1&gt;" style="text;html=1;resizable=0;autosize=1;align=center;verticalAlign=middle;points=[];fillColor=none;strokeColor=none;rounded=0;" vertex="1" parent="1">
          <mxGeometry x="324" y="330" width="180" height="50" as="geometry" />
        </mxCell>
        <mxCell id="0n6ZQgNS1HrYtbVCbrgp-2" value="Start" style="ellipse;whiteSpace=wrap;html=1;" vertex="1" parent="1">
          <mxGeometry x="354" y="390" width="120" height="80" as="geometry" />
        </mxCell>
      </root>
    </mxGraphModel>
  </diagram>
</mxfile>
